<?xml version="1.0" encoding="utf-8"?>
<!-- Generator: Adobe Illustrator 21.0.2, SVG Export Plug-In . SVG Version: 6.00 Build 0)  -->
<svg version="1.1" id="Warstwa_1" xmlns="http://www.w3.org/2000/svg" xmlns:xlink="http://www.w3.org/1999/xlink" x="0px" y="0px"
	 viewBox="0 0 32 32" style="enable-background:new 0 0 32 32;" xml:space="preserve">
<path d="M30.5,31.7h-29c-0.5,0-0.8-0.3-0.9-0.7c-0.1-0.2-0.1-0.5-0.1-0.6l0-0.2l0.8-3c0.5-1.6,1.6-2.9,3.2-3.4l5.5-1.8
	c0.9-0.4,1.4-1.9,1.6-2.8c-0.6-0.6-1.9-2-1.9-3.5c0-0.1,0-0.2,0-0.3c-0.2-0.1-0.3-0.2-0.3-0.3c-0.3-0.3-0.9-2.2-0.9-3.2v-0.3
	l0.1-0.1c0.1-0.2,0.3-0.5,0.5-0.8l0-0.5c0.1-0.5,0.1-1.5,0.1-2.6c0-2.9,2.7-7,6.8-7c4.1,0,5.1,2.4,5.3,3.4c0.9,0.7,1.4,1.8,1.4,3.6
	v3.1c0.3,0.3,0.5,0.7,0.6,1l0,0.2c0,1-0.4,2.2-0.6,2.7c0,0.1-0.1,0.2-0.1,0.2c0,0.2-0.2,0.4-0.3,0.5C22,15.3,22,15.4,22,15.6
	c0,1.3-0.5,2.5-1.4,3.4c0.2,0.9,0.8,2.6,1.8,3l5.3,1.8c1.6,0.6,2.8,1.8,3.2,3.4l0.8,3.2c0,0.2,0,0.6-0.3,0.9
	C31.2,31.4,31,31.7,30.5,31.7z M30.3,30.5C30.3,30.5,30.3,30.5,30.3,30.5L30.3,30.5L30.3,"/>
</svg>
