<?xml version="1.0" encoding="utf-8"?>
<!-- Generator: Adobe Illustrator 21.0.2, SVG Export Plug-In . SVG Version: 6.00 Build 0)  -->
<svg version="1.1" id="Warstwa_1" xmlns="http://www.w3.org/2000/svg" xmlns:xlink="http://www.w3.org/1999/xlink" x="0px" y="0px"
	 viewBox="0 0 39 39" style="enable-background:new 0 0 39 39;" xml:space="preserve">
<style type="text/css">
	.st0{fill:#4D75A3;}
	.st1{fill:#FFFFFF;}
</style>
<rect class="st0" width="39" height="39"/>
<path class="st1" d="M27.4,19.4c0,0,3.2-4.4,3.5-5.9c0.1-0.5-0.1-0.8-0.7-0.8c0,0-1.8,0-2.7,0c-0.6,0-0.9,0.3-1,0.7
	c0,0-1.5,3.1-3.3,5.1c-0.6,0.6-0.9,0.8-1.2,0.8c-0.3,0-0.4-0.2-0.4-0.8v-5.1c0-0.7-0.1-0.9-0.7-0.9h-4.4c-0.3,0-0.5,0.2-0.5,0.5
	c0,0.7,1,0.8,1,2.6v3.7c0,0.8,0,1-0.4,1c-0.9,0-3.2-3.2-4.4-6.9c-0.3-0.8-0.5-1-1.2-1H8.2c-0.4,0-0.7,0.3-0.7,0.7
	c0,0.7,0.9,4.1,4.2,8.6c2.3,3,5.2,4.7,7.9,4.7c1.6,0,2-0.3,2-1v-2.3c0-0.6,0.2-0.8,0.6-0.8c0.4,0,1,0.1,2.6,1.6c1.8,1.8,2,2.5,3,2.5
	h3.1c0.3,0,0.6-0.1,0.6-0.7c0-0.7-0.9-1.9-2.3-3.4c-0.6-0.8-1.5-1.6-1.8-1.9C27,20.1,27.1,19.8,27.4,19.4z"/>
</svg>
