<svg xmlns="http://www.w3.org/2000/svg" xmlns:xlink="http://www.w3.org/1999/xlink" version="1.1" width="533.333" height="533.334" style="" xml:space="preserve"><rect id="backgroundrect" width="100%" height="100%" x="0" y="0" fill="none" stroke="none"/>
















<g class="currentLayer" style=""><title>Layer 1</title><g id="svg_1" class="selected" fill="#ffffff" fill-opacity="1">
	<path d="M233.333,66.667v-8.333c0-13.75-11.25-25-25-25H125c-13.75,0-25,11.25-25,25v8.333H0v66.667h100v8.333   c0,13.75,11.25,25,25,25h83.333c13.75,0,25-11.25,25-25v-8.333h300V66.667H233.333z M133.333,133.333V66.667H200v66.667H133.333z    M433.333,225c0-13.75-11.25-25-25-25H325c-13.75,0-25,11.25-25,25v8.333H0V300h300v8.333c0,13.751,11.25,25,25,25h83.334   c13.75,0,25-11.249,25-25V300h100v-66.667h-100V225z M333.333,300v-66.667H400V300H333.333z M233.333,391.667   c0-13.751-11.25-25-25-25H125c-13.75,0-25,11.249-25,25V400H0v66.667h100V475c0,13.75,11.25,25,25,25h83.333   c13.75,0,25-11.25,25-25v-8.333h300V400h-300V391.667z M133.333,466.667V400H200v66.667H133.333z" id="svg_2" fill="#ffffff" fill-opacity="1"/>
</g><g id="svg_3">
</g><g id="svg_4">
</g><g id="svg_5">
</g><g id="svg_6">
</g><g id="svg_7">
</g><g id="svg_8">
</g><g id="svg_9">
</g><g id="svg_10">
</g><g id="svg_11">
</g><g id="svg_12">
</g><g id="svg_13">
</g><g id="svg_14">
</g><g id="svg_15">
</g><g id="svg_16">
</g><g id="svg_17">
</g></g></svg>