<svg xmlns="http://www.w3.org/2000/svg" xmlns:xlink="http://www.w3.org/1999/xlink" width="32.48979591836736" height="32.48979591836736" style=""><rect id="backgroundrect" width="100%" height="100%" x="0" y="0" fill="none" stroke="none"/><defs><filter id="f030" xmlns:inkscape="http://www.inkscape.org/namespaces/inkscape" inkscape:label="Desaturate" x="0" y="0" width="1" height="1" inkscape:menu="Color" inkscape:menu-tooltip="Render in shades of gray by reducing saturation to zero" color-interpolation-filters="sRGB">
            <feColorMatrix type="saturate" values="0"/>
        </filter></defs><title/><g class="currentLayer" style=""><title>Layer 1</title><path class="cls-1 selected" d="M29.1594921625517,0.24836747529298195 H19.863504644482035 a2.9037135404124896,2.9037135404124896 0 0 0 -2.0520943748498155,0.8618796374369238 L0.9637154521152311,17.92716051462414 a2.955015899783735,2.955015899783735 0 0 0 0,4.155491109070876 l9.46015506805765,9.46015506805765 a2.9344949560352376,2.9344949560352376 0 0 0 4.155491109070876,0 L31.375754087389495,14.73615376173268 a2.924234484160988,2.924234484160988 0 0 0 0.8618796374369238,-2.1136572060953105 l-0.1436466062394871,-9.480676011806148 A2.9344949560352376,2.9344949560352376 0 0 0 29.1594921625517,0.24836747529298195 zM26.77906268772591,7.953981852854039 A2.0520943748498155,2.0520943748498155 0 1 1 28.831157062575727,5.850585118632978 A2.0520943748498155,2.0520943748498155 0 0 1 26.77906268772591,7.953981852854039 z" id="svg_1" fill="#000000" filter="url(#f030)" fill-opacity="1" opacity="1"/><path class="cls-2" d="M16.87680504461196,9.308815412871876 a1.0260471874249077,1.0260471874249077 0 1 0 -2.0520943748498155,0.15390707811373622 l1.0260471874249077,13.718250895871016 a1.0260471874249077,1.0260471874249077 0 0 0 1.097870490544652,0.9439634124309152 a1.0260471874249077,1.0260471874249077 0 0 0 0.9542238843051644,-1.0260471874249077 a0.19494896561073247,0.19494896561073247 0 0 0 0,-0.08208377499399266 zm5.2636220714897775,3.0165787310292282 a3.078141562274724,3.078141562274724 0 1 0 3.078141562274724,3.078141562274724 A3.078141562274724,3.078141562274724 0 0 0 22.14042711610173,12.325394143901104 zm0,4.104188749699632 a1.0260471874249077,1.0260471874249077 0 1 1 1.0260471874249077,-1.0260471874249077 A1.0260471874249077,1.0260471874249077 0 0 1 22.14042711610173,16.429582893600735 zM10.525572954451775,13.669515959427732 a3.078141562274724,3.078141562274724 0 1 0 3.078141562274724,3.078141562274724 A3.078141562274724,3.078141562274724 0 0 0 10.525572954451775,13.669515959427732 zm0,4.104188749699632 a1.0260471874249077,1.0260471874249077 0 1 1 1.0260471874249077,-1.0260471874249077 A1.0260471874249077,1.0260471874249077 0 0 1 10.525572954451775,17.77370470912736 z" id="svg_2" fill="#ffffff" fill-opacity="1"/></g></svg>