<svg xmlns="http://www.w3.org/2000/svg" xmlns:xlink="http://www.w3.org/1999/xlink" version="1.1" style="" xml:space="preserve" width="80" height="80"><rect id="backgroundrect" width="100%" height="100%" x="0" y="0" fill="none" stroke="none"/>








<g class="currentLayer" style=""><title>Layer 1</title><g id="svg_1" class="" stroke-width="1" stroke="#6c56a5" fill="#9d7ee8" fill-opacity="1" stroke-opacity="1">
	<path style="" d="M9.749902564048769,70.92682921886444 C10.021902564048768,59.30182921886444 19.783902564048766,49.92682921886444 31.743902564048767,49.92682921886444 h15 c11.96,0 21.722,9.375 21.994,21 H9.749902564048769 z" id="svg_2" stroke-width="1" stroke="#6c56a5" stroke-opacity="1" fill="#9d7ee8" fill-opacity="1"/>
	<g id="svg_3" stroke-width="1" stroke="#6c56a5" stroke-opacity="1" fill="#9d7ee8" fill-opacity="1">
		<path style="" d="M46.74390256404877,50.42682921886444 c11.512,0 20.94,8.883000000000001 21.476,20 l-57.952,0 c0.536,-11.117 9.964,-20 21.476,-20 H46.74390256404877 M46.74390256404877,49.42682921886444 h-15 C19.317902564048765,49.42682921886444 9.243902564048769,59.27682921886444 9.243902564048769,71.42682921886444 v0 h60 v0 C69.24390256404877,59.27682921886444 59.16990256404877,49.42682921886444 46.74390256404877,49.42682921886444 L46.74390256404877,49.42682921886444 z" id="svg_4" stroke-width="1" stroke="#6c56a5" stroke-opacity="1" fill="#9d7ee8" fill-opacity="1"/>
	</g>
</g><g id="svg_5" class="" fill="#d3be8b" fill-opacity="1" stroke="#baa473" stroke-opacity="1" stroke-width="1">
	<path style="" d="M39.24390256404877,56.92682921886444 c-6.6850000000000005,0 -9.192,-5.859 -9.5,-6.648 V38.74582921886444 h19 v11.533 C48.435902564048774,51.06782921886444 45.92890256404877,56.92682921886444 39.24390256404877,56.92682921886444 z" id="svg_6" fill="#d3be8b" fill-opacity="1" stroke="#baa473" stroke-opacity="1" stroke-width="1"/>
	<path style="" d="M48.24390256404877,39.24582921886444 v10.936 c-0.4070000000000003,0.994 -2.849,6.245 -9,6.245 c-6.154,0 -8.596,-5.257 -9,-6.245 V39.24582921886444 H48.24390256404877 M49.24390256404877,38.24582921886444 H29.243902564048767 v12.124 c0,0 2.534,7.057 10,7.057 s10,-7.057 10,-7.057 V38.24582921886444 L49.24390256404877,38.24582921886444 z" id="svg_7" fill="#d3be8b" fill-opacity="1" stroke="#baa473" stroke-opacity="1" stroke-width="1"/>
</g><g id="svg_8" class="" fill="#d3be8b" fill-opacity="1" stroke="#baa473" stroke-opacity="1" stroke-width="1">
	<g id="svg_9" fill="#d3be8b" fill-opacity="1" stroke="#baa473" stroke-opacity="1" stroke-width="1">
		<path style="" d="M52.100902564048766,35.21282921886444 c-2.561,0 -4.644,-2.083 -4.644,-4.643 S49.540902564048764,25.92682921886444 52.100902564048766,25.92682921886444 c3.298,0 4.643,0.8490000000000006 4.643,2.9290000000000003 C56.74390256404877,31.36582921886444 54.66390256404877,35.21282921886444 52.100902564048766,35.21282921886444 zM26.386902564048768,35.21282921886444 c-2.5620000000000003,0 -4.643,-3.847 -4.643,-6.357 c0,-2.08 1.3450000000000002,-2.9290000000000003 4.643,-2.9290000000000003 c2.561,0 4.644,2.083 4.644,4.643 S28.946902564048766,35.21282921886444 26.386902564048768,35.21282921886444 z" id="svg_10" fill="#d3be8b" fill-opacity="1" stroke="#baa473" stroke-opacity="1" stroke-width="1"/>
	</g>
	<g id="svg_11" fill="#d3be8b" fill-opacity="1" stroke="#baa473" stroke-opacity="1" stroke-width="1">
		<path style="" d="M52.100902564048766,26.42682921886444 c3.45,0 4.143,0.929 4.143,2.4290000000000003 c0,2.503 -2.048,5.857 -4.143,5.857 c-2.284,0 -4.143,-1.858 -4.143,-4.143 C47.957902564048766,28.28482921886444 49.81690256404877,26.42682921886444 52.100902564048766,26.42682921886444 M26.386902564048768,26.42682921886444 c2.284,0 4.143,1.858 4.143,4.143 c0,2.284 -1.858,4.143 -4.143,4.143 c-2.095,0 -4.143,-3.354 -4.143,-5.857 C22.243902564048767,27.35582921886444 22.93690256404877,26.42682921886444 26.386902564048768,26.42682921886444 M52.100902564048766,25.42682921886444 c-2.84,0 -5.143,2.302 -5.143,5.143 s2.303,5.143 5.143,5.143 c2.84,0 5.143,-4.017 5.143,-6.857 C57.24390256404877,26.014829218864442 54.94090256404877,25.42682921886444 52.100902564048766,25.42682921886444 L52.100902564048766,25.42682921886444 zM26.386902564048768,25.42682921886444 c-2.84,0 -5.143,0.5880000000000006 -5.143,3.4290000000000003 c0,2.84 2.303,6.857 5.143,6.857 c2.84,0 5.143,-2.303 5.143,-5.143 S29.22690256404878,25.42682921886444 26.386902564048768,25.42682921886444 L26.386902564048768,25.42682921886444 z" id="svg_12" fill="#d3be8b" fill-opacity="1" stroke="#baa473" stroke-opacity="1" stroke-width="1"/>
	</g>
</g><g id="svg_13" class="" fill="#ffefc4" fill-opacity="1" stroke="#baa473" stroke-opacity="1" stroke-width="1">
	<g id="svg_14" fill="#ffefc4" fill-opacity="1" stroke="#baa473" stroke-opacity="1" stroke-width="1">
		<path style="" d="M39.24390256404877,48.92682921886444 c-1.3,0 -2.534,-0.49800000000000333 -3.477,-1.403 l-0.09100000000000139,-0.08600000000000114 l-0.1190000000000012,-0.03400000000000011 C29.77890256404877,45.76482921886444 25.743902564048767,40.42782921886444 25.743902564048767,34.42682921886444 V18.154829218864442 c0,-3.403 2.769,-6.172 6.172,-6.172 h14.656 c3.403,0 6.172,2.769 6.172,6.172 V34.42682921886444 c0,6.001 -4.035,11.338000000000001 -9.813,12.977 l-0.1190000000000012,0.03400000000000011 l-0.09100000000000139,0.08600000000000114 C41.77790256404877,48.42882921886444 40.543902564048764,48.92682921886444 39.24390256404877,48.92682921886444 z" id="svg_15" fill="#ffefc4" fill-opacity="1" stroke="#baa473" stroke-opacity="1" stroke-width="1"/>
	</g>
	<g id="svg_16" fill="#ffefc4" fill-opacity="1" stroke="#baa473" stroke-opacity="1" stroke-width="1">
		<path style="" d="M46.57190256404877,12.482829218864442 c3.128,0 5.6720000000000015,2.545 5.6720000000000015,5.6720000000000015 V34.42682921886444 c0,5.779 -3.886,10.918 -9.449,12.496 l-0.2400000000000002,0.06800000000000103 l-0.18000000000000024,0.17300000000000001 C41.525902564048764,47.97782921886444 40.41390256404877,48.42682921886444 39.24390256404877,48.42682921886444 s-2.282,-0.4490000000000038 -3.1310000000000002,-1.263 l-0.18000000000000024,-0.17300000000000001 l-0.2400000000000002,-0.06800000000000103 C30.129902564048766,45.34482921886445 26.243902564048767,40.205829218864444 26.243902564048767,34.42682921886444 V18.154829218864442 c0,-3.128 2.545,-5.6720000000000015 5.6720000000000015,-5.6720000000000015 H46.57190256404877 M46.57190256404877,11.482829218864442 H31.915902564048768 c-3.685,0 -6.6720000000000015,2.987 -6.6720000000000015,6.6720000000000015 V34.42682921886444 c0,6.405 4.306,11.793 10.177,13.458 C36.41390256404877,48.83782921886444 37.75890256404877,49.42682921886444 39.24390256404877,49.42682921886444 s2.83,-0.5890000000000006 3.823,-1.542 C48.93790256404877,46.21982921886445 53.24390256404877,40.83182921886444 53.24390256404877,34.42682921886444 V18.154829218864442 C53.24390256404877,14.46982921886444 50.256902564048765,11.482829218864442 46.57190256404877,11.482829218864442 L46.57190256404877,11.482829218864442 z" id="svg_17" fill="#ffefc4" fill-opacity="1" stroke="#baa473" stroke-opacity="1" stroke-width="1"/>
	</g>
</g><g id="svg_18" class="" fill="#662f2f" fill-opacity="1" stroke="#421919" stroke-opacity="1" opacity="1" stroke-width="1">
	<path style="" d="M52.74390256404877,30.92682921886444 v-8.5 c0,-6.66 -5.292,-8.458 -5.346,-8.476 l-0.3260000000000038,-0.10600000000000002 l-0.21700000000000041,0.267 C46.80790256404877,14.16982921886444 42.057902564048774,19.92682921886444 35.24390256404877,19.92682921886444 c-0.521,0 -1.062,-0.017000000000000293 -1.608,-0.03300000000000011 c-0.5690000000000006,-0.017000000000000293 -1.146,-0.035 -1.711,-0.035 c-2.006,0 -6.181,0 -6.181,4.568 V30.92682921886444 h-0.21800000000000044 c-0.7000000000000006,-1.192 -3.782,-6.755 -3.782,-12.348 C21.743902564048767,8.774829218864442 28.93990256404877,1.926829218864441 39.24390256404877,1.926829218864441 c6.472,0 9.527,5.675 9.557,5.732 l0.1190000000000012,0.226000000000002 l0.253,0.03700000000000001 c5.166,0.7400000000000067 7.571,4.396 7.571,11.505 c0,5.077 -3.073,10.359 -3.776,11.5 H52.74390256404877 z" id="svg_19" fill="#662f2f" fill-opacity="1" stroke="#421919" stroke-opacity="1" opacity="1" stroke-width="1"/>
	<g id="svg_20" fill="#662f2f" fill-opacity="1" stroke="#421919" stroke-opacity="1" opacity="1" stroke-width="1">
		<path style="" d="M39.24390256404877,2.426829218864441 c6.155,0 8.997,5.242 9.114,5.463 l0.23700000000000004,0.454 l0.507,0.07300000000000002 C52.16790256404876,8.855829218864441 56.24390256404877,10.474829218864441 56.24390256404877,19.42682921886444 c0,3.895 -1.872,7.936 -3,10.018 V22.42682921886444 c0,-3.644 -1.526,-5.878 -2.807,-7.111 c-1.4,-1.347 -2.824,-1.8210000000000002 -2.8840000000000003,-1.84 l-0.6530000000000076,-0.21100000000000024 l-0.4330000000000023,0.532 c-0.04600000000000074,0.05600000000000011 -4.658,5.63 -11.224,5.63 c-0.516,0 -1.052,-0.01600000000000024 -1.594,-0.03300000000000011 c-0.5740000000000006,-0.017000000000000293 -1.155,-0.035 -1.725,-0.035 c-1.999,0 -6.681,0 -6.681,5.068 v4.944 c-1.1320000000000001,-2.203 -3,-6.489 -3,-10.792 C22.243902564048767,9.06882921886444 29.234902564048767,2.426829218864441 39.24390256404877,2.426829218864441 M39.24390256404877,1.4268292188644414 c-10.719,0 -18,7.333 -18,17.152 c0,6.504 4,12.848 4,12.848 h1 c0,0 0,-5.211 0,-7 c0,-3.582 2.701,-4.068 5.681,-4.068 c1.109,0 2.257,0.067000000000001 3.319,0.067000000000001 c7.146,0 12,-5.999 12,-5.999 s5,1.6260000000000003 5,8 c0,1.968 0,9 0,9 h1 c0,0 4,-6.073 4,-12 c0,-8.322 -3.4050000000000002,-11.342 -8,-12 C49.24390256404877,7.426829218864441 46.11190256404877,1.4268292188644414 39.24390256404877,1.4268292188644414 L39.24390256404877,1.4268292188644414 z" id="svg_21" fill="#662f2f" fill-opacity="1" stroke="#421919" stroke-opacity="1" opacity="1" stroke-width="1"/>
	</g>
</g><g id="svg_22" class="" fill="#ffffff" fill-opacity="1" stroke="none" stroke-width="2" opacity="1">
	<path style="" d="M128.10116199404,57.59504497051239 c-9.649000000000001,0 -17.5,-7.851 -17.5,-17.5 S118.45216199404001,22.59504497051239 128.10116199404,22.59504497051239 S145.60116199404,30.44604497051239 145.60116199404,40.09504497051239 S137.75016199404,57.59504497051239 128.10116199404,57.59504497051239 z" id="svg_23" fill="#ffffff" fill-opacity="1" stroke="none" stroke-opacity="1" stroke-width="2" opacity="1"/>
	<g id="svg_24" fill="#ffffff" fill-opacity="1" stroke="none" stroke-opacity="1" stroke-width="2" opacity="1">
		<path style="" d="M128.10116199404,23.09504497051239 c9.374,0 17,7.626 17,17 s-7.626,17 -17,17 s-17,-7.626 -17,-17 S118.72716199404002,23.09504497051239 128.10116199404,23.09504497051239 M128.10116199404,22.09504497051239 c-9.941,0 -18,8.059 -18,18 s8.059,18 18,18 s18,-8.059 18,-18 S138.04216199404001,22.09504497051239 128.10116199404,22.09504497051239 L128.10116199404,22.09504497051239 z" id="svg_25" fill="#ffffff" fill-opacity="1" stroke="none" stroke-opacity="1" stroke-width="2" opacity="1"/>
	</g>
</g><line style="fill: none; stroke-width: 4; stroke-miterlimit: 10;" x1="126.39384765923023" y1="52.90091449022293" x2="126.39384765923023" y2="32.90092593431473" id="svg_26" class="" opacity="1" stroke="#000000" stroke-opacity="1"/><line style="fill: none; stroke-width: 4; stroke-miterlimit: 10;" x1="115.29628677666187" y1="40.21799784898758" x2="135.29628677666187" y2="40.21799784898758" id="svg_27" class="" opacity="1" stroke="#000000" stroke-opacity="1"/></g></svg>